<svg xmlns="http://www.w3.org/2000/svg" xml:space="preserve" width="2000" height="164" data-id="lg_HcQ3irADWwuzI5R4Sv" data-version="1" viewBox="0 0 2000 164"><g data-padding="20"><g transform="translate(10 2.94)scale(.96416)"><path fill="#e8ac3a" stroke="#fff" stroke-width="3.55" d="m1083.453 114.952-18.247-3.905-2.2 3.657-11.219 19.454 4.118-.355 8.059-.745h.177l3.834-3.62-3.514 3.193 3.834-3.479Zm25.063 2.805.568-1.562 1.065-2.093v-.073l.568-.816.142-.212 1.491-2.13.32-.355.035-.106h.071l1.207-1.491 1.74-1.67 1.775-1.49 3.585-2.307h.071l3.586-1.67 3.302-1.03 1.42-.247-19.383-7.561-2.84 1.846-3.302 2.484-6.319 5.432-6.106 5.858v.035l-4.331 4.97 11.822 2.379Zm17.502-27.974 8.2-.284 8.52.071 8.875.497 9.23.958 2.485.391-6.816-1.74-7.526-1.207-7.81-.638-7.952-.213-8.094.107-7.952.355-7.703.355-4.047.213 1.278.568 1.952 1.1 1.598.816 7.739-.78Zm-145.55 2.06 2.165.922q.391.142.426.568v.106l-.177 1.917v.391l2.13-.178 1.526-.177v-1.278q.071-.604.64-.639l3.194-.106 1.917-.143.178-.745.178-1.065-.107.107-.071-1.066-.071-.283-1.42-.356-2.13-.248h-2.236l-1.278.071-1.065.142h.07l-2.307 1.207Zm-105.4 47.924h-.106v-.035Zl.036-.07-.142.035-7.42 1.775c-1.49 2.165-.887 3.656-.994 5.68l4.26-3.657Zm-5.786-.425 6.532-1.527h.035v-.07l-.035-.214-.142-.178-.036.071-.568-.639-1.846-2.343-.319.036h-6.496c1.313 1.597 4.046 2.946 2.84 4.863m82.963-30.53-3.94-1.953-4.048-1.42-3.94-1.065-3.621-.568-2.982-.284-1.243-.07h-.994l-.213-.072-.674 1.278a25.56 25.56 0 0 1 22.01 9.586l.355-.213 4.899-.532-2.13-2.201-1.669-1.35-1.775-1.277v.035Zm-23.182-4.012q0-.213.071-.355l.64-1.278h-1.42l-3.231.426-2.946.71-2.698.994-2.485 1.136-2.202 1.385-2.059 1.526-1.846 1.491.071.036-3.195 3.514-2.449 3.373-1.81 2.982-.71 1.278-.391.497-.213.461.071-.035-2.343 11.715a.71.71 0 0 1-.39.498l-27.939 13.029.036.14 34.186.605c-8.165-27.441 7.135-42.422 23.252-44.126m243.779 34.08-3.798.993-1.491 3.727-.675 1.775 3.799.533 6.39-7.312.142-.108 2.91-1.88-2.982 1.241Zm-301.182-6.427-3.514-4.26v.108l-.995-.533q-.141-.106-.141-.248l-7.1 3.55c.603 1.065 1.171 1.633 2.52 2.059h9.763Zm236.182-4.864 1.065-4.01 1.526-3.585 1.882-3.197 2.2-2.84 2.344-2.483 2.52-2.095 2.592-1.775 2.662-1.456 2.592-1.171 2.485-.923 2.236-.64.852-.105-.213-.817-.248-.64-2.06.356-3.123.888-3.48 1.242-3.443 1.81-1.74 1.066-1.668 1.136.107.035h-.178.036v-.035l-2.308 2.2-.568.71-.745.924-1.101 1.633-1.313 2.272-.71 1.704-.426 1.17a.71.71 0 0 1-.64.427h-.141l-22.969-4.26-.248.107-16.934 15.442-3.621 3.408-.213.07-.071.107-.426.142-13.384 1.207-.106.178a.71.71 0 0 1-.533.32l-76.325 6.78 4.615 1.562 8.307 2.59 79.45-.354 1.313-.07 1.1-.143-.07-.106.141-.071 34.08-14.84.32-.07a.71.71 0 0 1 .674.71.71.71 0 0 1-.39.604l-33.796 14.803 39.263-.107-1.1-5.04-.64-5.361v-4.935ZM975.178 82.47l.284-.07q.249 0 .462.141.213.248.213.568v.142l-2.201 8.875-.994 4.366 2.627-.213 2.165-.248 2.166-14.484q.036-.426.39-.533l3.054-1.242 3.266-1.136 3.479-1.065 3.798-.994 8.13-1.704 8.768-1.278 9.23-.852 9.585-.213 9.656.426 8.875 1.065.178-.142h.177q.284 0 .462.213l1.988.106 2.627.213 3.017.355 3.337.533 3.692.64 3.905.78 8.378 1.917 8.875 2.45 8.981 2.91 8.769 3.373.142.071 6.745-.355 7.703-.426 7.988-.32 8.094-.106 8.023.213 7.917.71 7.597 1.207 7.17 1.775q.533.177.533.71v.142a.71.71 0 0 1-.639.497l6.816 1.1 6.639 1.527 2.485.532-.852-3.408v-.142q-.036-.284.177-.497l.71-.603-1.846-2.485-1.42-1.882-4.437 1.065h-.178a.71.71 0 0 1-.603-.355l-.071-.355q0-.248.213-.497l6.141-5.68-1.065.355h-.213a.7.7 0 0 1-.497-.177.7.7 0 0 1-.248-.497l-7.81 2.485h-.178a.7.7 0 0 1-.461-.178.71.71 0 0 1-.249-.532v-.142l.249-.817-6.248 1.065-1.136.178.887.603q.284.178.32.533v.071a.71.71 0 0 1-.356.603l-6.212 3.266-.284.071h-.071l-5.822-.497-6.177-.71-12.78-1.988-6.497-1.313-6.46-1.527-6.32-1.775-6.035-1.988-2.698-.958-2.485-.994-2.662-.959-1.562-.355-.888-.319-.497-.07-2.84 1.774-.355.106h-.07l-5.468-.71-5.644-.603-11.715-1.243-12.212-1.065-12.319-.78-12.318-.356-12.07.178-11.609.816-5.538.675-5.325.852-2.769.71-3.088.923-6.674 2.023-7.171 2.343-7.597 2.627-15.514 5.893-7.49 3.018-5.396 2.236-.178.071 5.219 1.562Zm198.374 30.494h-.07a.71.71 0 0 1-.533-.284l-.107-.355q0-.177.071-.319l4.509-10.082 2.308-5.36-7.81-2.095-8.769-1.562-8.981-.959-9.088-.497h-9.017l-8.911.25-8.626.567-4.97.355 18.743 7.455h.568l.391.142 2.094-.39 3.48-.214 3.62.178 3.657.603 3.55.888 3.443 1.242 3.124 1.562.071.036 2.627 1.81q.284.25.284.568l-.106.426a.71.71 0 0 1-.604.284l-.39-.106-1.314-1.065-1.207-.817v.107h-.035l-2.947-1.527-3.23-1.17-3.479-.889-3.515-.568-3.55-.177-3.266.177-1.668.284.71 1.74 3.372-.142 4.473.213 4.58.71 2.272.603 2.272.852 2.201 1.101 2.165 1.35 2.13 1.667 2.13 1.953 1.953 2.343 1.846 2.662 1.846 3.09 1.633 3.442.035.284v2.272l.071 1.065 2.414.142h2.13l3.621-3.017 3.834-3.55 3.692-3.799 1.882-2.307 1.207-1.527v-.07Zm-287.691 27.159 12.744-5.93 2.308-11.573.07-.142.568-1.1.782-1.349 1.881-3.088 2.556-3.48 3.16-3.442.07-.142 4.048-3.23 2.378-1.457 2.592-1.242 2.84-.994 3.088-.71 3.337-.461 1.953.07h.284l.39-.106.355.07h.213l.284-.176 2.662-2.13.107-.071 3.585-2.023 1.278-.57 1.42-.71 2.13-.886.249-.071-.639-.177-1.278-.391-3.053-.852.035.035-9.194 2.023-8.982 2.557-9.123 3.16-4.722 1.844-2.485.96-2.343.993h.071l-4.544 4.332-.106.106-18.744 10.26-.355.106h-.071l-.639.355-.497.213h-.462l-.106.07-2.308 1.775-1.242.96-1.136 1.064h.035l.107.037-.213.212.852-.285h.106l21.407-3.585h.142q.568 0 .639.569v.141q-.036.497-.568.64l-10.544 1.667-10.792 1.776.071.106-2.769.995-.177.105-.604.25h.036l7.064 8.661.568.674.107.071.32.533.07.248.107.781v.142q0 .178-.071.32l-.462.745-.568.96q-.035.212-.142.247l-6.39 5.538-.994.852 2.485-.106 6.568-3.018Zm10.082-31.524-.107-.037 1.527-1.42-2.095.96-5.751 3.3-5.787 3.764-1.065.675 4.509-2.414Zm194.185-.569.639-.71 6.283-6.105 4.508-3.798 1.42-1.208.213-.141.178-.142 3.692-2.734-36.352 5.786-3.266 6.817-1.668 3.656 19.312 3.87ZM970.67 141.118l49.522-4.224 29.643-2.557 13.916-23.607-9.55-2.13-15.158-3.018q-.107 0-.178-.106l-77.78 9.372 5.218 14.555Zm97.412-43.452-9.372-6.746-5.183.427-.177.141h-.178l-.355-.07-37.275 2.945-28.4 2.309-4.793.638h-.106a.7.7 0 0 1-.426-.177l-9.55.78q0 .108-.07.178l-11.36 15.124 78.313-9.194Zm-97.767 45.581q-.284 0-.497-.284s-.532-1.03-.461-1.064l-9.94-27.122h-.143l-.177-.071-3.55.355-1.243.107 1.065 1.277 1.846 2.734 1.669 3.266 1.349 3.905v.07l.852 4.439v.07l.177 5.113-.177 2.84-.462 3.053-.639 3.23-.71 2.485h24.85Zm-10.827-30.459 10.295-14.27-1.917.105-3.657-.07-6.745-.64-6.461-.923-3.337-.532-2.769-.355-.71.248-.71.285-1.491.603-2.13.924-2.13 1.17-3.018 1.883-1.313.958h.355l3.088.355 3.692.568 4.047 1.03 4.19 1.42 4.117 2.059.107.035 3.692 2.627.071.07 2.556 2.698Zm83.247-7.88 5.467 1.17-.674-.496-.072-.07-.603-.604-.178-.25-.106-.354-.036-.177Zm27.797-7.35 37.275-5.928-2.344-1.172-3.372-1.596h-.071a.7.7 0 0 1-.497-.25l-30.388 1.599-10.295.568 9.585 6.638Zm-2.521 3.834.958-2.059-3.159.71q.142.107.178.32v.142l-.071.532-.071.178-.249.532-.781 1.633.071.142v.178q-.071.497-.532.603l-1.172 2.343-.568 1.136-.284.25-.958.567-.249.071h-.284l3.302.71Zm-6.568 5.751h-.07v-.034h.106l.071-.072.213-.425-.355.496.532-1.064.71-1.457-10.046 1.528 6.319 1.17.568.213.426.037-.071-.108.071.108.533-.037.355-.034-.107-.036.568-.213Zm-13.135-2.59.071-.108.888.675.107.106 14.057-2.13.923-1.916.249-.249.071-.142h-.106l.035-.07.071-.142-.106-.036h-.142l.035.07-.71.108-8.91 1.916-6.852 1.563.071.105Zm118.215 23.323a.7.7 0 0 1-.213-.461v-.96a28.4 28.4 0 0 0-16.117-20.021l-1.349-.532-2.2-.568-4.367-.71-4.331-.142-4.225.177h-.07l-.32-.106-1.065.248-2.13.569-2.379.887-2.485 1.136h-.07a28.152 28.152 0 1 0 41.321 20.483m-234.442-21.903a26.164 26.164 0 1 0-3.336 52.22 26.164 26.164 0 0 0 3.337-52.22"/><g fill="#fff" stroke="#fff" stroke-width="3.5" transform="translate(280 164.43)"><path d="M467.976-.423h557.654"/>undefined
        undefined</g><rect width="324.852" height="80.23" x="584.377" y="-40.538" fill="none" rx="0" ry="0" transform="translate(276.48 40.53)"/><path fill="#fff" d="M882.573 62.627q-3.97 0-7.13-1.88t-4.97-5.19q-1.81-3.3-1.81-7.42v-3.26q0-.29.28-.29h8.03q.28 0 .28.36v3.19q0 2.63 1.49 4.26 1.49 1.64 3.83 1.64 2.13 0 3.7-1.78 1.56-1.77 1.56-4.12v-35.28q0-.29.28-.29h7.95q.29 0 .29.36l.07 35.21q0 3.91-1.88 7.21t-5.01 5.29q-3.12 1.99-6.96 1.99m15.41-1.07 8.81-48.77q.07-.29.35-.29h10.3q.28 0 .35.29l8.45 48.77q.07.36-.28.36h-7.89q-.28 0-.35-.36l-.78-5.18h-9.66l-.78 5.18q-.07.36-.35.36h-7.88q-.29 0-.29-.36m13.92-32.73-3.2 19.95h6.82l-2.91-19.95-.43-2.62Zm42.68 33.09h-26.48q-.36 0-.36-.36l.07-7.74 17.4-33.22h-16.48q-.28 0-.28-.29v-7.45q0-.36.28-.36h25.71q.35 0 .35.36v7.67l-17.32 33.08h17.11q.28 0 .28.36l.07 7.59q0 .36-.35.36m28.67 0h-26.48q-.36 0-.36-.36l.08-7.74 17.39-33.22h-16.47q-.29 0-.29-.29v-7.45q0-.36.29-.36h25.7q.36 0 .36.36v7.67l-17.33 33.08h17.11q.29 0 .29.36l.07 7.59q0 .36-.36.36m23.65 0h-8.03q-.28 0-.28-.36l.14-48.77q0-.29.28-.29h14.35q3.83 0 7.06 1.88 3.23 1.89 5.15 5.05 1.92 3.15 1.92 7.13 0 2.63-.79 4.72-.78 2.1-1.84 3.55-1.07 1.46-1.92 2.17 3.84 4.26 3.84 10.01l.07 14.55q0 .36-.36.36h-8.02q-.29 0-.29-.21v-14.7q0-2.56-1.81-4.44t-4.43-1.88h-4.69l-.07 20.87q0 .36-.28.36m.35-40.9v11.15h6.11q2.2 0 3.9-1.63 1.71-1.64 1.71-3.98 0-2.27-1.67-3.9-1.67-1.64-3.94-1.64Zm48.78 40.9h-22.94q-.28 0-.28-.36l.07-48.77q0-.29.29-.29h22.79q.28 0 .28.36v7.95q0 .28-.28.28h-14.56v11.08h14.56q.28 0 .28.28l.07 8.03q0 .28-.28.28h-14.63v12.43h14.63q.28 0 .28.35v8.09q0 .29-.28.29m14.35 0h-7.1q-.57 0-.57-.5l-.07-48.35q0-.57.57-.57h6.39l12 27.98-.36-27.41q0-.57.64-.57h7.03q.43 0 .43.57l.07 48.42q0 .43-.36.43h-6.25l-12.28-26.13.5 25.56q0 .57-.64.57m40.33 0h-8.03q-.28 0-.28-.36v-40.47h-9.23q-.35 0-.35-.35l.07-7.95q0-.29.28-.29h26.98q.36 0 .36.29v7.95q0 .35-.29.35h-9.3l.07 40.47q0 .36-.28.36m8.29-.36 8.81-48.77q.07-.29.35-.29h10.3q.28 0 .35.29l8.45 48.77q.07.36-.28.36h-7.88q-.29 0-.36-.36l-.78-5.18h-9.65l-.79 5.18q-.07.36-.35.36h-7.88q-.29 0-.29-.36m13.92-32.73-3.19 19.95h6.81l-2.91-19.95-.43-2.62Zm42.04 33.09h-22.93q-.28 0-.28-.36l.07-48.7q0-.36.35-.36h7.88q.36 0 .36.36l-.07 40.33h14.62q.36 0 .36.35v8.02q0 .36-.36.36"/><rect width="84.546" height="27.12" x="704.53" y="-13.983" fill="none" rx="0" ry="0" transform="translate(53.2 134.31)"/><path fill="#fff" d="M766.033 140.928h-7.75q-.1 0-.1-.12l.03-16.49q0-.09.09-.09h7.71q.09 0 .09.12v2.69q0 .09-.09.09h-4.92v3.75h4.92q.09 0 .09.09l.03 2.71q0 .1-.1.1h-4.94v4.2h4.94q.1 0 .1.12v2.74q0 .09-.1.09m6.17.24q-1.3 0-2.36-.66-1.07-.66-1.71-1.75-.63-1.09-.63-2.41v-1.11q0-.12.12-.12h2.68q.1 0 .1.12v1.11q0 .79.53 1.35.53.57 1.27.57t1.27-.58q.53-.57.53-1.34 0-.89-1.15-1.54-.39-.21-1.2-.67-.82-.46-1.54-.86-1.32-.77-1.95-1.94-.64-1.16-.64-2.62 0-1.35.65-2.42.65-1.06 1.71-1.69 1.07-.62 2.32-.62 1.27 0 2.34.63 1.07.64 1.7 1.71.64 1.07.64 2.39v1.96q0 .1-.1.1h-2.68q-.1 0-.1-.1l-.02-1.96q0-.84-.53-1.37t-1.25-.53q-.74 0-1.27.56-.53.57-.53 1.34 0 .79.34 1.32.33.52 1.22 1 .12.08.47.26t.75.4q.41.23.74.4.32.17.39.22 1.2.67 1.9 1.64.69.97.69 2.39 0 1.37-.63 2.46-.64 1.09-1.71 1.73-1.06.63-2.36.63m11.38-.24h-2.72q-.09 0-.09-.12v-13.68h-3.12q-.12 0-.12-.12l.02-2.69q0-.09.1-.09h9.12q.12 0 .12.09v2.69q0 .12-.1.12h-3.14l.02 13.68q0 .12-.09.12m6.33 0h-2.71q-.1 0-.1-.09v-2.72q0-.09.1-.09h2.71q.1 0 .1.09v2.72q0 .09-.1.09m14.23 0h-8.95q-.12 0-.12-.12v-2.71q0-.05.05-.1l5.93-8.13q.17-.22.27-.57.11-.34.11-.61 0-.69-.5-1.28-.51-.59-1.27-.59-.75 0-1.26.56-.52.57-.52 1.43v1.18q0 .12-.12.12h-2.69q-.09 0-.09-.12v-1.18q0-1.34.66-2.45.66-1.1 1.72-1.75 1.07-.65 2.3-.65 1.29 0 2.35.66 1.05.66 1.69 1.74t.64 2.33q0 .79-.28 1.61t-.76 1.44l-4.56 6.26h5.4q.1 0 .1.1v2.71q0 .12-.1.12m6.84.24q-1.53 0-2.71-.66-1.17-.66-1.83-1.75t-.66-2.41l.02-7.61q0-1.32.66-2.4t1.84-1.73q1.17-.65 2.68-.65 1.54 0 2.69.65t1.81 1.73.66 2.4l.03 7.61q0 1.32-.66 2.41t-1.83 1.75q-1.16.66-2.7.66m2.28-4.82-.02-7.61q0-.84-.62-1.37-.63-.53-1.64-.53-1.03 0-1.65.53-.63.53-.63 1.37v7.61q0 .89.63 1.4.62.52 1.65.52 1.01 0 1.65-.52.63-.51.63-1.4m13.42 4.58h-8.95q-.12 0-.12-.12v-2.71q0-.05.05-.1l5.92-8.13q.17-.22.28-.57.11-.34.11-.61 0-.69-.51-1.28-.5-.59-1.27-.59-.74 0-1.26.56-.51.57-.51 1.43v1.18q0 .12-.12.12h-2.69q-.1 0-.1-.12v-1.18q0-1.34.66-2.45.66-1.1 1.73-1.75t2.29-.65q1.3 0 2.35.66 1.06.66 1.7 1.74.63 1.08.63 2.33 0 .79-.27 1.61-.28.82-.76 1.44l-4.56 6.26h5.4q.1 0 .1.1v2.71q0 .12-.1.12m8.66 0h-2.71q-.09 0-.09-.12v-2.81h-5.19q-.09 0-.09-.12v-2.64l5.23-10.92q.05-.09.14-.09h2.71q.08 0 .08.09l.02 10.83h1.68q.12 0 .12.12v2.61q0 .12-.1.12h-1.7v2.81q0 .12-.1.12m-2.8-11.01-2.45 5.23h2.45Z"/><rect width="60.606" height="29.38" x="716.5" y="-15.113" fill="none" rx="0" ry="0" transform="translate(510.35 134.48)"/><path fill="#fff" d="m1235.063 141.698-4.65.02q-.13 0-.13-.13l.05-17.86q0-.1.1-.1l4.86-.03q1.43-.03 2.62.68 1.18.7 1.88 1.88t.7 2.61v7.47q0 1.5-.72 2.74-.73 1.23-1.95 1.96-1.23.73-2.76.76m-1.59-14.95-.02 11.77h1.61q.96 0 1.62-.67.67-.68.67-1.61v-7.49q0-.83-.61-1.45-.61-.61-1.45-.58Zm12.12 14.98h-2.94q-.1 0-.1-.13l.05-17.86q0-.1.1-.1h5.26q1.4 0 2.58.68 1.19.69 1.89 1.85t.7 2.61q0 .97-.29 1.73-.28.77-.67 1.3-.39.54-.7.8 1.4 1.56 1.4 3.66l.03 5.33q0 .13-.13.13h-2.94q-.11 0-.11-.08v-5.38q0-.93-.66-1.62t-1.62-.69h-1.72l-.03 7.64q0 .13-.1.13m.13-14.97v4.08h2.24q.8 0 1.43-.6.62-.6.62-1.46 0-.83-.61-1.43-.61-.59-1.44-.59Zm12.43 14.97h-2.94q-.13 0-.13-.13l.03-17.86q0-.1.1-.1h2.91q.11 0 .11.1l.02 17.86q0 .13-.1.13m8.45 0h-3.15q-.1 0-.13-.13l-3.59-17.86q-.02-.1.11-.1h2.94q.1 0 .13.1l2.13 11.91 2.08-11.91q.02-.1.13-.1h2.91q.13 0 .1.1l-3.53 17.86q-.03.13-.13.13m13.7 0h-8.4q-.1 0-.1-.13l.02-17.86q0-.1.11-.1h8.34q.11 0 .11.13v2.91q0 .1-.11.1h-5.33v4.06h5.33q.11 0 .11.1l.02 2.94q0 .1-.1.1h-5.36v4.55h5.36q.1 0 .1.13v2.97q0 .1-.1.1m5.46 0h-2.94q-.1 0-.1-.1v-2.94q0-.1.1-.1h2.94q.1 0 .1.1v2.94q0 .1-.1.1"/></g><path fill="transparent" stroke="transparent" d="M721 0h558v164H721z"/></g></svg>