<?xml version="1.0" encoding="UTF-8" standalone="no"?>
<svg xmlns="http://www.w3.org/2000/svg" width="32" height="32" viewBox="0 0 32 32"><path fill="#b0b8bc" d="M30 24H18a3 3 0 0 1-3-3v-2a3 3 0 0 1 3-3h12zm-12-6a1 1 0 0 0-1 1v2a1 1 0 0 0 1 1h10v-4z M25 28H7a3 3 0 0 1-3-3V12h24v5h-2v-3H6v11a1 1 0 0 0 1 1h18a1 1 0 0 0 1-1v-2h2v2a3 3 0 0 1-3 3z M28 13h-2v-2a1 1 0 0 0-1-1h-2V8h2a3 3 0 0 1 3 3zM6 13H4v-2a3 3 0 0 1 3-3h2v2H7a1 1 0 0 0-1 1zM15 2.5h2V10h-2z M19.29 7.71L16 4.41l-3.29 3.3-1.42-1.42L16 1.59l4.71 4.7-1.42 1.42z" />
<circle fill="#b0b8bc" cx="19" cy="20" r="1" /></svg>