<?xml version="1.0" encoding="UTF-8" standalone="no"?><svg viewBox="0 0 256 256" height="256" width="256" xmlns="http://www.w3.org/2000/svg">
  <defs>
    <style>.cls-1 { opacity: 0 }.cls-2 { fill: rgb(255, 255, 255) }.cls-3 { fill: rgb(255, 95, 0) }.cls-4 { fill: rgb(235, 0, 27) }.cls-5 { fill: rgb(247, 158, 27) }</style>
  </defs>
  <g>
    <g class="cls-1">
      <rect height="141.59" width="214.08" y="6.93" x="21.57" class="cls-2"></rect>
    </g>
    <rect height="92.24" width="56.47" y="31.6" x="100.38" class="cls-3"></rect>
    <path d="M106.2,77.72a58.55,58.55,0,0,1,22.4-46.11,58.66,58.66,0,1,0,0,92.24A58.54,58.54,0,0,1,106.2,77.72Z" class="cls-4"></path>
    <path d="M217.9,114.08v-1.89h.82v-.4h-1.94v.4h.76v1.89Zm3.77,0v-2.29h-.59l-.68,1.63-.69-1.63h-.59v2.29h.43v-1.73l.63,1.48h.44l.64-1.48v1.73Z" class="cls-5"></path>
    <path d="M223.51,77.72a58.66,58.66,0,0,1-94.91,46.12,58.66,58.66,0,0,0,0-92.24,58.66,58.66,0,0,1,94.91,46.11Z" class="cls-5"></path>
  </g>
  <path d="M96.82,171.4,70.1,235.15H52.66L39.52,184.28c-.8-3.14-1.5-4.28-3.93-5.6-4-2.15-10.5-4.17-16.26-5.42l.39-1.86H47.78a7.69,7.69,0,0,1,7.61,6.5l6.94,36.9,17.16-43.4Zm68.31,42.94c.07-16.83-23.27-17.75-23.11-25.27,0-2.29,2.23-4.72,7-5.34a31.11,31.11,0,0,1,16.27,2.85l2.89-13.52a44.33,44.33,0,0,0-15.43-2.82c-16.3,0-27.77,8.66-27.87,21.07-.1,9.18,8.19,14.3,14.44,17.35,6.43,3.13,8.59,5.13,8.56,7.92,0,4.28-5.13,6.17-9.87,6.24-8.29.13-13.1-2.24-16.94-4l-3,14c3.85,1.78,11,3.31,18.34,3.39,17.33,0,28.66-8.56,28.72-21.81m43,20.81h15.25L210.11,171.4H196a7.51,7.51,0,0,0-7,4.68l-24.74,59.07h17.32l3.43-9.52h21.16Zm-18.4-22.58,8.68-23.94,5,23.94ZM120.38,171.4l-13.63,63.75H90.25L103.9,171.4Z" class="cls-2"></path>
</svg>